<svg width="266" height="72" viewBox="0 0 266 72" fill="none" xmlns="http://www.w3.org/2000/svg">
<path d="M40.4689 71.2546C44.1432 71.2546 47.1006 70.8066 49.5202 70.0896L48.624 59.5148C46.1148 60.3213 43.247 60.7694 40.2 60.7694C28.5497 60.7694 15.2863 51.1803 13.0459 35.5869C10.8951 19.8142 20.3049 11.5694 31.8656 11.5694C35.5399 11.5694 38.7661 12.1967 41.5443 13.0929L40.5585 2.06994C37.8699 1.353 34.7333 0.994527 31.5967 0.994527C12.6874 0.994527 -1.8306 14.8852 1.21639 36.8415C4.35301 58.977 22.635 71.2546 40.4689 71.2546ZM91.6509 70.3585C103.48 67.5803 109.664 57.1847 107.961 44.9967C106.438 33.8841 97.6553 24.1158 85.2881 21.0688L86.1843 31.6437C91.9198 34.3322 96.1318 40.0678 97.028 46.4306C97.9242 52.5246 95.863 57.812 90.7548 60.2317L91.6509 70.3585ZM77.1329 70.5377L76.2367 59.9628C70.5012 57.4536 66.3788 51.8973 65.393 45.176C64.5865 39.3508 66.7373 34.0634 71.6662 31.3749L70.7701 21.3377C59.3886 24.3847 52.9362 34.7803 54.5493 46.4306C56.252 58.1705 64.5865 67.7596 77.1329 70.5377ZM137.959 20.5311L138.676 29.7617C144.412 30.9268 148.893 35.318 149.699 41.412L140.558 41.0535L141.723 49.4776L160.453 49.2087C160.722 47.9541 160.812 45.0863 160.543 42.6667C159.019 31.9126 151.492 21.965 137.959 20.5311ZM113.583 46.8787C115.645 61.7552 127.026 71.2546 142.709 71.2546C152.029 71.2546 159.288 68.9246 162.873 65.788L159.468 57.3639C156.241 60.2317 150.058 61.6656 143.247 61.6656C135.092 61.6656 127.026 57.0951 125.592 49.1191L122.276 23.7574C115.286 28.2382 112.15 36.9311 113.583 46.8787ZM189.611 71.2546L188.804 61.3967C185.219 60.6798 181.724 57.9016 181.097 52.9727L176.616 21.5169H165.593L170.164 53.6896C171.866 66.2361 180.29 71.165 189.611 71.2546ZM207.444 71.5235L216.765 67.5803C215.331 65.4295 214.255 61.8448 213.628 57.4536L208.52 21.5169H197.407L203.501 64.8022C204.218 68.118 206.369 70.4481 207.444 71.5235ZM233.24 48.0437L231.626 34.6011C231.178 31.3749 235.39 29.3137 241.126 29.3137C248.206 29.3137 254.658 32.8087 256.092 34.6907L257.884 25.8186C256.719 24.6535 250.536 20.3519 241.036 20.3519C228.938 20.3519 219.349 26.4459 220.693 36.1246C221.679 42.9355 226.787 46.1617 233.24 48.0437ZM255.913 69.6415C262.724 67.3115 266.04 62.1137 264.875 54.1377C263.799 46.341 257.974 43.4732 247.31 41.1432L248.206 51.4492C251.611 52.5246 254.031 54.2273 254.3 56.3781L255.913 69.6415ZM241.574 71.165L240.857 61.7552C233.598 61.0383 227.146 57.6328 224.995 55.3923L224.726 66.0568C226.966 67.5803 232.433 70.6273 241.574 71.165Z" fill="white"/>
</svg>
