<svg width="150" height="150" viewBox="0 0 150 150" fill="none" xmlns="http://www.w3.org/2000/svg">
<path d="M75.0001 94.172C85.5885 94.172 94.172 85.5885 94.172 75.0001C94.172 64.4118 85.5885 55.8282 75.0001 55.8282C64.4118 55.8282 55.8282 64.4118 55.8282 75.0001C55.8282 85.5885 64.4118 94.172 75.0001 94.172Z" fill="#ABD8ED"/>
<path d="M74.9998 27.3279C65.5712 27.3279 56.3543 30.1238 48.5147 35.362C40.6751 40.6003 34.5649 48.0456 30.9567 56.7565C27.3485 65.4674 26.4045 75.0526 28.2439 84.3001C30.0833 93.5475 34.6236 102.042 41.2907 108.709C47.9577 115.376 56.452 119.916 65.6994 121.756C74.9469 123.595 84.5321 122.651 93.243 119.043C101.954 115.435 109.399 109.324 114.637 101.485C119.876 93.6452 122.672 84.4284 122.672 74.9998C122.659 62.3602 117.633 50.2419 108.695 41.3044C99.7576 32.3668 87.6393 27.3403 74.9998 27.3279V27.3279ZM74.9998 102.328C69.5385 102.328 64.2004 100.705 59.6628 97.666C55.1252 94.6269 51.5928 90.3083 49.5137 85.2582C47.4346 80.2082 46.9026 74.6543 47.9853 69.3014C49.0679 63.9485 51.7164 59.0379 55.5945 55.1927C59.4727 51.3475 64.4057 48.7411 69.7677 47.7042C75.1296 46.6673 80.6788 47.2467 85.7109 49.3688C90.743 51.491 95.0313 55.0602 98.0315 59.6235C101.032 64.1869 102.609 69.5387 102.562 74.9998C102.562 82.3098 99.6584 89.3204 94.4894 94.4894C89.3204 99.6583 82.3098 102.562 74.9998 102.562V102.328Z" fill="#ABD8ED"/>
<path d="M75 0C60.1664 0 45.6659 4.39867 33.3323 12.6398C20.9986 20.8809 11.3856 32.5943 5.70907 46.2987C0.0324961 60.0032 -1.45275 75.0832 1.44114 89.6318C4.33503 104.18 11.4781 117.544 21.967 128.033C32.456 138.522 45.8197 145.665 60.3683 148.559C74.9168 151.453 89.9968 149.968 103.701 144.291C117.406 138.614 129.119 129.001 137.36 116.668C145.601 104.334 150 89.8336 150 75C150 55.1088 142.098 36.0322 128.033 21.967C113.968 7.90176 94.8913 0 75 0V0ZM75 130.453C64.0324 130.453 53.3111 127.201 44.1919 121.108C35.0727 115.014 27.9651 106.354 23.768 96.221C19.5709 86.0882 18.4728 74.9385 20.6124 64.1816C22.7521 53.4248 28.0335 43.544 35.7887 35.7887C43.544 28.0335 53.4248 22.7521 64.1817 20.6124C74.9385 18.4727 86.0883 19.5709 96.221 23.768C106.354 27.9651 115.014 35.0727 121.108 44.1919C127.201 53.3111 130.453 64.0324 130.453 75C130.428 89.6995 124.578 103.79 114.184 114.184C103.79 124.578 89.6995 130.428 75 130.453V130.453Z" fill="#ABD8ED"/>
</svg>
