<svg width="150" height="150" viewBox="0 0 150 150" fill="none" xmlns="http://www.w3.org/2000/svg">
<path d="M128.571 107.143C124.757 107.162 121.019 108.209 117.75 110.175L82.575 75L117.755 39.8196C121.021 41.7877 124.758 42.8372 128.571 42.8571C132.81 42.8571 136.953 41.6004 140.476 39.2458C144 36.8912 146.747 33.5445 148.369 29.6289C149.991 25.7134 150.415 21.4048 149.588 17.2481C148.761 13.0913 146.721 9.27313 143.724 6.27629C140.727 3.27945 136.909 1.23858 132.752 0.411754C128.595 -0.415072 124.287 0.00928459 120.371 1.63116C116.456 3.25304 113.109 5.99959 110.754 9.5235C108.4 13.0474 107.143 17.1904 107.143 21.4286C107.163 25.2417 108.212 28.9787 110.18 32.2446L75 67.425L39.825 32.25C41.7906 28.9812 42.8381 25.2428 42.8571 21.4286C42.8571 17.1904 41.6004 13.0474 39.2458 9.5235C36.8912 5.99959 33.5445 3.25304 29.6289 1.63116C25.7134 0.00928459 21.4048 -0.415072 17.2481 0.411754C13.0913 1.23858 9.27313 3.27945 6.27629 6.27629C3.27945 9.27313 1.23858 13.0913 0.411754 17.2481C-0.415072 21.4048 0.00928459 25.7134 1.63116 29.6289C3.25304 33.5445 5.99959 36.8912 9.5235 39.2458C13.0474 41.6004 17.1904 42.8571 21.4286 42.8571C25.2428 42.8381 28.9812 41.7906 32.25 39.825L67.425 75L32.2446 110.18C28.9786 108.212 25.2417 107.163 21.4286 107.143C17.1904 107.143 13.0474 108.4 9.5235 110.754C5.99959 113.109 3.25304 116.456 1.63116 120.371C0.00928459 124.287 -0.415072 128.595 0.411754 132.752C1.23858 136.909 3.27945 140.727 6.27629 143.724C9.27313 146.721 13.0913 148.761 17.2481 149.588C21.4048 150.415 25.7134 149.991 29.6289 148.369C33.5445 146.747 36.8912 144 39.2458 140.476C41.6004 136.953 42.8571 132.81 42.8571 128.571C42.8374 124.758 41.788 121.021 39.8196 117.755L75 82.575L110.175 117.75C108.209 121.019 107.162 124.757 107.143 128.571C107.143 132.81 108.4 136.953 110.754 140.476C113.109 144 116.456 146.747 120.371 148.369C124.287 149.991 128.595 150.415 132.752 149.588C136.909 148.761 140.727 146.721 143.724 143.724C146.721 140.727 148.761 136.909 149.588 132.752C150.415 128.595 149.991 124.287 148.369 120.371C146.747 116.456 144 113.109 140.476 110.754C136.953 108.4 132.81 107.143 128.571 107.143ZM128.571 10.7143C130.691 10.7143 132.762 11.3427 134.524 12.52C136.286 13.6973 137.659 15.3706 138.47 17.3284C139.281 19.2862 139.493 21.4405 139.08 23.5188C138.666 25.5972 137.646 27.5063 136.148 29.0047C134.649 30.5031 132.74 31.5236 130.662 31.937C128.583 32.3504 126.429 32.1382 124.471 31.3273C122.513 30.5163 120.84 29.1431 119.663 27.3811C118.486 25.6192 117.857 23.5477 117.857 21.4286C117.86 18.5878 118.99 15.8643 120.998 13.8556C123.007 11.8469 125.731 10.7171 128.571 10.7143V10.7143ZM21.4286 139.286C19.3095 139.286 17.238 138.657 15.476 137.48C13.7141 136.303 12.3408 134.629 11.5299 132.672C10.7189 130.714 10.5068 128.56 10.9202 126.481C11.3336 124.403 12.354 122.494 13.8524 120.995C15.3509 119.497 17.26 118.476 19.3383 118.063C21.4167 117.65 23.571 117.862 25.5288 118.673C27.4865 119.484 29.1599 120.857 30.3372 122.619C31.5145 124.381 32.1429 126.452 32.1429 128.571C32.14 131.412 31.0103 134.136 29.0016 136.144C26.9929 138.153 24.2693 139.283 21.4286 139.286V139.286Z" fill="#ABD8ED"/>
</svg>
