<svg width="150" height="150" viewBox="0 0 150 150" fill="none" xmlns="http://www.w3.org/2000/svg">
<path d="M59.2592 6.52173H12.9629C9.3102 6.52173 6.34912 9.23924 6.34912 12.5915V55.0797C6.34912 58.4319 9.3102 61.1494 12.9629 61.1494H59.2592C62.9118 61.1494 65.8729 58.4319 65.8729 55.0797V12.5915C65.8729 9.23924 62.9118 6.52173 59.2592 6.52173Z" stroke="#ABD8ED" stroke-width="8.33333"/>
<path d="M60.8465 81.25H12.1693C8.80879 81.25 6.08459 84.0482 6.08459 87.5V137.5C6.08459 140.952 8.80879 143.75 12.1693 143.75H60.8465C64.207 143.75 66.9312 140.952 66.9312 137.5V87.5C66.9312 84.0482 64.207 81.25 60.8465 81.25Z" fill="#ABD8ED"/>
<path d="M137.831 81.25H89.1534C85.7929 81.25 83.0687 84.0482 83.0687 87.5V137.5C83.0687 140.952 85.7929 143.75 89.1534 143.75H137.831C141.191 143.75 143.915 140.952 143.915 137.5V87.5C143.915 84.0482 141.191 81.25 137.831 81.25Z" fill="#ABD8ED"/>
<path d="M137.831 6.25H89.1534C85.7929 6.25 83.0687 9.04822 83.0687 12.5V62.5C83.0687 65.9518 85.7929 68.75 89.1534 68.75H137.831C141.191 68.75 143.915 65.9518 143.915 62.5V12.5C143.915 9.04822 141.191 6.25 137.831 6.25Z" fill="#ABD8ED"/>
</svg>
