<svg width="231" height="314" viewBox="0 0 231 314" fill="none" xmlns="http://www.w3.org/2000/svg">
<path d="M33.2083 280.708C15.1041 280.708 0.291626 295.521 0.291626 313.625H230.708C230.708 295.521 215.896 280.708 197.792 280.708H131.958V247.792H181.333C199.437 247.792 214.25 232.979 214.25 214.875H82.5833C55.2625 214.875 33.2083 192.821 33.2083 165.5C33.2383 156.959 35.4832 148.572 39.7238 141.158C43.9643 133.745 50.0554 127.558 57.4021 123.202C64.15 132.912 74.8479 139.66 87.5208 140.648C99.0416 141.635 109.904 137.521 117.969 130.444L127.679 156.941L143.15 151.346L148.746 166.817L179.687 155.625L174.092 140.154L189.562 134.558L144.467 10.7915L128.996 16.3873L123.4 0.916504L92.4583 12.1082L98.0541 27.579L82.5833 33.3394L91.8 58.8498C72.5437 58.1915 55.7562 71.1936 50.9833 89.4623C35.978 95.7263 23.1597 106.287 14.1401 119.816C5.12055 133.346 0.302442 149.24 0.291626 165.5C0.291626 210.925 37.1583 247.792 82.5833 247.792V280.708H33.2083ZM129.654 42.3915L157.798 119.746L142.327 125.342L114.183 47.9873L129.654 42.3915ZM90.8125 83.2082C99.8645 83.2082 107.271 90.6144 107.271 99.6665C107.271 108.719 99.8645 116.125 90.8125 116.125C81.7604 116.125 74.3541 108.719 74.3541 99.6665C74.3541 90.6144 81.7604 83.2082 90.8125 83.2082Z" fill="#ABD8ED"/>
</svg>
