<svg width="52" height="52" viewBox="0 0 52 52" fill="none" xmlns="http://www.w3.org/2000/svg">
<path d="M21.3992 0.5C23.203 0.5 24.2311 2.2961 24.2311 4.09985V15.1545H21.9477C21.5037 14.0568 20.6917 13.1477 19.6509 12.583C18.61 12.0183 17.4052 11.8332 16.2429 12.0594C15.0805 12.2856 14.0331 12.909 13.28 13.8228C12.5268 14.7366 12.115 15.8838 12.115 17.068C12.115 18.2521 12.5268 19.3994 13.28 20.3132C14.0331 21.227 15.0805 21.8504 16.2429 22.0766C17.4052 22.3028 18.61 22.1177 19.6509 21.553C20.6917 20.9883 21.5037 20.0792 21.9477 18.9814H24.2311V46.7852C24.2311 48.3058 23.5882 49.8187 22.2335 50.5101C21.0051 51.1536 19.6402 51.493 18.2535 51.5C14.4011 51.5 11.536 49.5508 9.69142 47.2445C8.41395 45.6529 7.52316 43.7866 7.08912 41.7924C5.89771 41.4408 4.7943 40.8409 3.85155 40.032C2.04014 38.4732 0.631836 35.9729 0.631836 32.2889C0.631836 30.3627 0.769605 28.6839 1.11658 27.2731H11.8574C13.5872 27.2731 15.021 28.5487 15.2634 30.2096C14.17 30.662 13.2678 31.4803 12.7112 32.5245C12.1546 33.5688 11.9782 34.774 12.2123 35.9339C12.4463 37.0938 13.0763 38.1363 13.9943 38.883C14.9122 39.6297 16.0612 40.0341 17.2445 40.0271C18.4278 40.02 19.5718 39.6019 20.4808 38.8443C21.3898 38.0867 22.0073 37.0367 22.2274 35.8741C22.4476 34.7115 22.2569 33.5084 21.6879 32.4709C21.1189 31.4334 20.2069 30.6259 19.1082 30.1866C18.9741 28.3552 18.1521 26.6422 16.8071 25.3919C15.4621 24.1415 13.6938 23.4464 11.8574 23.4462H3.28516C3.66721 23.1304 4.09248 22.8709 4.54804 22.6757C4.28506 21.7382 4.13265 20.7733 4.09392 19.8004C4.00973 17.9252 4.29037 15.9735 4.84654 14.2361C5.39762 12.5267 6.27016 10.8607 7.49477 9.71011C8.26296 8.96157 9.23618 8.45809 10.291 8.26353C10.7987 6.12046 12.0922 4.34988 13.7428 3.06658C15.863 1.41336 18.6413 0.5 21.3967 0.5H21.3992ZM28.0581 38.7538H32.2677C34.1961 38.7538 36.0455 37.9878 37.4091 36.6242C38.7727 35.2606 39.5388 33.4111 39.5388 31.4827V26.9032C40.6365 26.4591 41.5456 25.6471 42.1103 24.6063C42.675 23.5654 42.8601 22.3606 42.6339 21.1983C42.4077 20.0359 41.7843 18.9885 40.8705 18.2354C39.9567 17.4823 38.8095 17.0704 37.6253 17.0704C36.4412 17.0704 35.2939 17.4823 34.3801 18.2354C33.4663 18.9885 32.8429 20.0359 32.6167 21.1983C32.3905 22.3606 32.5757 23.5654 33.1404 24.6063C33.705 25.6471 34.6142 26.4591 35.7119 26.9032V31.4827C35.7119 32.3962 35.349 33.2722 34.7031 33.9181C34.0572 34.564 33.1811 34.9269 32.2677 34.9269H28.0581V17.0858V17.068V4.09985C28.0581 2.2961 29.0862 0.5 30.89 0.5C33.6504 0.5 36.4262 1.41336 38.5463 3.06658C40.197 4.34988 41.4905 6.12301 41.9982 8.26353C43.0698 8.44212 44.0239 8.98809 44.7944 9.71011C46.019 10.8607 46.8916 12.5242 47.4426 14.2361C47.9988 15.9735 48.2795 17.9252 48.1953 19.8004C48.1519 20.7597 48.0116 21.7394 47.7411 22.6757L47.9095 22.7522C48.8535 23.1961 49.6189 23.8926 50.1904 24.8188C51.2747 26.5664 51.6573 29.0819 51.6573 32.2889C51.6573 35.9755 50.2491 38.4783 48.4376 40.032C47.4941 40.8412 46.3898 41.4412 45.1975 41.7924C44.7641 43.7863 43.8742 45.6526 42.5978 47.2445C40.7532 49.5508 37.8881 51.5 34.0331 51.5C32.6466 51.4938 31.2818 51.1552 30.0531 50.5127C28.701 49.8187 28.0581 48.3058 28.0581 46.7852V38.7538ZM15.9395 17.068C15.9395 16.7297 16.0739 16.4052 16.3131 16.166C16.5523 15.9267 16.8768 15.7923 17.2151 15.7923C17.5534 15.7923 17.8779 15.9267 18.1171 16.166C18.3564 16.4052 18.4908 16.7297 18.4908 17.068C18.4908 17.4063 18.3564 17.7308 18.1171 17.97C17.8779 18.2092 17.5534 18.3436 17.2151 18.3436C16.8768 18.3436 16.5523 18.2092 16.3131 17.97C16.0739 17.7308 15.9395 17.4063 15.9395 17.068ZM17.2151 33.6513C16.8768 33.6513 16.5523 33.7857 16.3131 34.0249C16.0739 34.2641 15.9395 34.5886 15.9395 34.9269C15.9395 35.2652 16.0739 35.5897 16.3131 35.8289C16.5523 36.0682 16.8768 36.2026 17.2151 36.2026C17.5534 36.2026 17.8779 36.0682 18.1171 35.8289C18.3564 35.5897 18.4908 35.2652 18.4908 34.9269C18.4908 34.5886 18.3564 34.2641 18.1171 34.0249C17.8779 33.7857 17.5534 33.6513 17.2151 33.6513ZM36.3497 22.1705C36.3497 22.5089 36.4841 22.8333 36.7233 23.0725C36.9626 23.3118 37.287 23.4462 37.6253 23.4462C37.9637 23.4462 38.2881 23.3118 38.5273 23.0725C38.7666 22.8333 38.901 22.5089 38.901 22.1705C38.901 21.8322 38.7666 21.5077 38.5273 21.2685C38.2881 21.0293 37.9637 20.8949 37.6253 20.8949C37.287 20.8949 36.9626 21.0293 36.7233 21.2685C36.4841 21.5077 36.3497 21.8322 36.3497 22.1705Z" fill="#FF8700"/>
</svg>
