<svg width="119" height="106" viewBox="0 0 119 106" fill="none" xmlns="http://www.w3.org/2000/svg">
<path d="M48.05 0C52.2234 0 54.6023 3.71296 54.6023 7.44174V30.2943H49.3192C48.2917 28.0251 46.413 26.1457 44.0048 24.9784C41.5966 23.811 38.809 23.4284 36.1197 23.896C33.4303 24.3636 31.0068 25.6523 29.2643 27.5413C27.5218 29.4303 26.5689 31.802 26.5689 34.2499C26.5689 36.6978 27.5218 39.0695 29.2643 40.9585C31.0068 42.8475 33.4303 44.1363 36.1197 44.6039C38.809 45.0714 41.5966 44.6888 44.0048 43.5214C46.413 42.3541 48.2917 40.4747 49.3192 38.2055H54.6023V95.6825C54.6023 98.8258 53.1148 101.953 49.9803 103.383C47.138 104.713 43.9802 105.415 40.7717 105.429C31.8582 105.429 25.2292 101.4 20.9614 96.6318C18.0057 93.3416 15.9446 89.4835 14.9404 85.3611C12.1838 84.6343 9.63079 83.3941 7.44952 81.722C3.25843 78.4995 0 73.3309 0 65.7151C0 61.7332 0.31876 58.2628 1.12156 55.3463H25.973C29.9752 55.3463 33.2926 57.9833 33.8534 61.4167C31.3235 62.3519 29.236 64.0435 27.9482 66.2022C26.6604 68.3609 26.2524 70.8524 26.794 73.2502C27.3355 75.6481 28.793 77.8032 30.917 79.3467C33.0409 80.8903 35.6993 81.7263 38.4371 81.7117C41.1749 81.6971 43.8219 80.8328 45.9251 79.2667C48.0283 77.7005 49.4568 75.53 49.9663 73.1266C50.4758 70.7231 50.0345 68.2362 48.7179 66.0914C47.4013 63.9466 45.2914 62.2773 42.7492 61.3693C42.4391 57.5831 40.537 54.0421 37.4251 51.4573C34.3132 48.8726 30.2219 47.4357 25.973 47.4351H6.13907C7.02302 46.7824 8.00698 46.246 9.06103 45.8424C8.45255 43.9044 8.09992 41.9096 8.01031 39.8985C7.81551 36.022 8.46483 31.9873 9.75168 28.3957C11.0267 24.862 13.0455 21.4181 15.8789 19.0395C17.6563 17.4921 19.9081 16.4512 22.3486 16.049C23.5233 11.6188 26.5161 7.9586 30.3353 5.30573C35.2406 1.88812 41.6689 0 48.0441 0H48.05ZM63.4567 79.0796H73.1966C77.6584 79.0796 81.9375 77.496 85.0925 74.6771C88.2475 71.8582 90.02 68.035 90.02 64.0485V54.5815C92.5598 53.6636 94.6633 51.9849 95.9698 49.8333C97.2764 47.6817 97.7047 45.191 97.1813 42.7882C96.658 40.3854 95.2156 38.22 93.1013 36.6632C90.987 35.1063 88.3326 34.2549 85.5928 34.2549C82.853 34.2549 80.1985 35.1063 78.0843 36.6632C75.97 38.22 74.5276 40.3854 74.0043 42.7882C73.4809 45.191 73.9092 47.6817 75.2158 49.8333C76.5223 51.9849 78.6257 53.6636 81.1656 54.5815V64.0485C81.1656 65.9368 80.326 67.7479 78.8315 69.0831C77.337 70.4184 75.3101 71.1685 73.1966 71.1685H63.4567V34.2868V34.2499V7.44174C63.4567 3.71296 65.8356 0 70.009 0C76.396 0 82.8184 1.88812 87.7238 5.30573C91.543 7.9586 94.5358 11.6241 95.7105 16.049C98.1897 16.4182 100.397 17.5469 102.18 19.0395C105.013 21.4181 107.032 24.8568 108.307 28.3957C109.594 31.9873 110.244 36.022 110.049 39.8985C109.948 41.8815 109.624 43.9068 108.998 45.8424L109.388 46.0006C111.572 46.9183 113.343 48.3581 114.665 50.2726C117.174 53.8853 118.059 59.0856 118.059 65.7151C118.059 73.3362 114.801 78.51 110.61 81.722C108.427 83.3947 105.871 84.635 103.113 85.3611C102.11 89.483 100.051 93.341 97.0976 96.6318C92.8298 101.4 86.2008 105.429 77.2814 105.429C74.0734 105.416 70.9156 104.716 68.0728 103.388C64.9443 101.953 63.4567 98.8258 63.4567 95.6825V79.0796ZM35.4177 34.2499C35.4177 33.5505 35.7287 32.8798 36.2822 32.3852C36.8357 31.8907 37.5864 31.6129 38.3692 31.6129C39.152 31.6129 39.9027 31.8907 40.4562 32.3852C41.0097 32.8798 41.3207 33.5505 41.3207 34.2499C41.3207 34.9493 41.0097 35.62 40.4562 36.1146C39.9027 36.6091 39.152 36.887 38.3692 36.887C37.5864 36.887 36.8357 36.6091 36.2822 36.1146C35.7287 35.62 35.4177 34.9493 35.4177 34.2499ZM38.3692 68.5315C37.5864 68.5315 36.8357 68.8093 36.2822 69.3038C35.7287 69.7984 35.4177 70.4691 35.4177 71.1685C35.4177 71.8679 35.7287 72.5386 36.2822 73.0332C36.8357 73.5277 37.5864 73.8056 38.3692 73.8056C39.152 73.8056 39.9027 73.5277 40.4562 73.0332C41.0097 72.5386 41.3207 71.8679 41.3207 71.1685C41.3207 70.4691 41.0097 69.7984 40.4562 69.3038C39.9027 68.8093 39.152 68.5315 38.3692 68.5315ZM82.6413 44.7981C82.6413 45.4975 82.9523 46.1682 83.5058 46.6628C84.0593 47.1573 84.81 47.4351 85.5928 47.4351C86.3756 47.4351 87.1263 47.1573 87.6798 46.6628C88.2333 46.1682 88.5443 45.4975 88.5443 44.7981C88.5443 44.0987 88.2333 43.428 87.6798 42.9334C87.1263 42.4389 86.3756 42.161 85.5928 42.161C84.81 42.161 84.0593 42.4389 83.5058 42.9334C82.9523 43.428 82.6413 44.0987 82.6413 44.7981Z" fill="white"/>
</svg>
