<svg width="653" height="112" viewBox="0 0 653 112" fill="none" xmlns="http://www.w3.org/2000/svg">
<path d="M2.95254 30.9831C8.78983 24.1491 16.9051 16.8881 29.2915 16.8881C39.1153 16.8881 48.3695 23.8644 49.7932 33.8305C51.0746 42.9424 47.5153 54.1898 41.3932 65.0102L62.8915 64.1559C68.0169 53.0508 70.722 41.8034 69.1559 30.9831C66.7356 12.9017 49.3661 0.372877 29.2915 0.372877C13.061 0.372877 3.23729 8.34576 0.81695 11.7627L2.95254 30.9831ZM7.50848 105.444L9.92881 110H79.5492L78.4102 94.6237L18.7559 94.9085C14.4847 99.322 10.6407 103.024 7.50848 105.444ZM149.785 47.7831H170.429L179.683 19.5932L183.812 47.7831H202.747L196.341 2.22373H165.588L149.785 47.7831ZM135.974 88.2169L140.388 94.6237H190.361L192.496 110H211.432L209.296 94.6237H224.957L223.818 79.2475H139.249L135.974 88.2169ZM266.683 19.0237L337.3 18.5966C339.435 14.3254 341.713 9.91186 344.134 5.4983L342.425 2.22373H264.262L266.683 19.0237ZM303.7 103.308C303.984 105.444 304.412 108.007 304.981 110.569L325.483 109.431C325.198 107.722 324.913 106.014 324.486 103.878C321.496 82.6644 322.208 64.5831 326.622 47.3559L306.405 48.2102C302.418 64.2983 300.852 83.0915 303.7 103.308ZM482.82 17.3153C471.715 5.78305 456.908 0.372877 443.953 0.372877C417.186 0.372877 399.817 17.7424 403.376 42.5153C406.651 66.0068 425.871 77.2542 443.668 77.2542C467.159 77.2542 477.837 59.7424 478.834 47.3559L467.871 48.2102C464.169 55.4712 456.339 60.5966 445.803 60.5966C433.559 60.5966 423.451 53.478 421.458 39.6678C419.322 24.2915 431.566 17.7424 443.668 17.7424L482.82 17.3153ZM498.481 50.4881C498.339 49.6339 498.197 48.4949 497.912 47.2136L478.976 47.7831L480.115 56.183C483.247 78.2508 471.288 95.9051 450.786 95.9051C431.139 95.9051 423.024 89.3559 420.319 87.2203L422.169 104.59C426.725 108.007 434.698 111.993 451.214 111.993C479.261 111.993 504.034 90.7797 498.481 50.4881ZM556.935 61.878C557.078 62.5898 557.22 63.8712 557.505 65.1525L576.44 64.5831L575.159 56.183C572.169 34.1152 584.129 16.461 604.488 16.461C624.278 16.461 632.251 23.0102 634.956 25.1458L633.247 7.77627C628.691 4.35932 620.576 0.372877 604.203 0.372877C576.013 0.372877 551.24 21.5864 556.935 61.878ZM572.454 95.0508C583.702 106.583 598.366 111.993 611.464 111.993C638.088 111.993 655.457 94.6237 652.04 69.8508C648.766 46.3593 629.546 35.1119 611.607 35.1119C588.257 35.1119 577.579 52.6237 576.583 65.0102L587.403 64.1559C591.105 56.8949 599.078 51.7695 609.471 51.7695C621.857 51.7695 631.966 58.8881 633.959 72.6983C636.095 88.0746 623.851 94.6237 611.749 94.6237L572.454 95.0508Z" fill="black"/>
</svg>
