<svg width="835" height="112" viewBox="0 0 835 112" fill="none" xmlns="http://www.w3.org/2000/svg">
<path d="M0.366103 76.5424C2.92881 94.6237 16.8814 107.295 38.2373 110.997L36.6712 93.2C26.9898 89.9254 20.0136 82.3797 18.7322 73.1254C17.1661 62.3051 24 57.6068 26.1356 56.7525C30.5492 58.6034 33.9661 59.8847 43.9322 60.5966C60.3051 61.5932 70.1288 67.7153 71.5525 78.2508C72.5492 85.0847 68.7051 91.2068 59.878 93.9119L61.3017 111.139C82.3729 107.864 93.0509 93.2 90.6305 76.1153C88.3525 60.1695 77.3898 53.9051 68.7051 51.0576C72.122 49.6339 78.6712 42.9424 76.9627 30.1288C75.1119 17.3153 65.2881 5.78305 48.2034 1.65423L49.6271 18.0271C55.322 20.7322 59.5932 25.8576 60.4475 31.5525C61.4441 39.0983 57.7424 44.0814 52.3322 46.2169C35.6746 43.5119 20.7254 42.3729 18.8746 29.1322C18.0203 23.4373 20.8678 19.4508 26.4203 17.0305L24.9966 1.36949C8.19661 4.64407 -1.48475 16.7458 0.650849 31.8373C2.21695 42.6576 8.90848 48.3525 12.6102 50.061C7.2 52.7661 -1.76949 61.1661 0.366103 76.5424ZM224.165 17.3153C213.06 5.78305 198.253 0.372877 185.297 0.372877C158.531 0.372877 141.162 17.7424 144.721 42.5153C147.996 66.0068 167.216 77.2542 185.013 77.2542C208.504 77.2542 219.182 59.7424 220.179 47.3559L209.216 48.2102C205.514 55.4712 197.684 60.5966 187.148 60.5966C174.904 60.5966 164.796 53.478 162.802 39.6678C160.667 24.2915 172.911 17.7424 185.013 17.7424L224.165 17.3153ZM239.826 50.4881C239.684 49.6339 239.541 48.4949 239.257 47.2136L220.321 47.7831L221.46 56.183C224.592 78.2508 212.633 95.9051 192.131 95.9051C172.484 95.9051 164.369 89.3559 161.663 87.2203L163.514 104.59C168.07 108.007 176.043 111.993 192.558 111.993C220.606 111.993 245.379 90.7797 239.826 50.4881ZM298.28 61.878C298.423 62.5898 298.565 63.8712 298.85 65.1525L317.785 64.5831L316.504 56.183C313.514 34.1152 325.473 16.461 345.833 16.461C365.623 16.461 373.596 23.0102 376.301 25.1458L374.592 7.77627C370.036 4.35932 361.921 0.372877 345.548 0.372877C317.358 0.372877 292.585 21.5864 298.28 61.878ZM313.799 95.0508C325.046 106.583 339.711 111.993 352.809 111.993C379.433 111.993 396.802 94.6237 393.385 69.8508C390.111 46.3593 370.89 35.1119 352.951 35.1119C329.602 35.1119 318.924 52.6237 317.928 65.0102L328.748 64.1559C332.45 56.8949 340.423 51.7695 350.816 51.7695C363.202 51.7695 373.311 58.8881 375.304 72.6983C377.44 88.0746 365.196 94.6237 353.094 94.6237L313.799 95.0508ZM448.237 48.3525L467.03 47.2136C467.599 31.5525 475.715 17.0305 494.793 17.0305C515.01 17.0305 527.538 32.4068 532.379 48.3525L551.457 47.2136C544.766 21.7288 524.833 0.372877 494.366 0.372877C463.186 0.372877 447.81 22.4407 448.237 48.3525ZM455.64 79.6746C465.179 98.4678 482.691 111.993 508.176 111.993C534.515 111.993 548.61 97.7559 552.454 78.8203L532.521 79.6746C528.82 88.9288 521.132 95.3356 507.749 95.3356C493.511 95.3356 483.26 88.0746 476.711 78.8203L455.64 79.6746ZM601.989 19.0237L672.606 18.5966C674.742 14.3254 677.02 9.91186 679.44 5.4983L677.732 2.22373H599.569L601.989 19.0237ZM639.006 103.308C639.291 105.444 639.718 108.007 640.288 110.569L660.789 109.431C660.505 107.722 660.22 106.014 659.793 103.878C656.803 82.6644 657.515 64.5831 661.928 47.3559L641.711 48.2102C637.725 64.2983 636.159 83.0915 639.006 103.308ZM818.127 17.3153C807.022 5.78305 792.215 0.372877 779.259 0.372877C752.493 0.372877 735.124 17.7424 738.683 42.5153C741.958 66.0068 761.178 77.2542 778.974 77.2542C802.466 77.2542 813.144 59.7424 814.141 47.3559L803.178 48.2102C799.476 55.4712 791.646 60.5966 781.11 60.5966C768.866 60.5966 758.758 53.478 756.764 39.6678C754.629 24.2915 766.873 17.7424 778.974 17.7424L818.127 17.3153ZM833.788 50.4881C833.646 49.6339 833.503 48.4949 833.219 47.2136L814.283 47.7831L815.422 56.183C818.554 78.2508 806.595 95.9051 786.093 95.9051C766.446 95.9051 758.33 89.3559 755.625 87.2203L757.476 104.59C762.032 108.007 770.005 111.993 786.52 111.993C814.568 111.993 839.341 90.7797 833.788 50.4881Z" fill="black"/>
</svg>
