<svg width="827" height="112" viewBox="0 0 827 112" fill="none" xmlns="http://www.w3.org/2000/svg">
<path d="M80.3966 17.3153C69.2915 5.78305 54.4847 0.372877 41.5288 0.372877C14.7627 0.372877 -2.60678 17.7424 0.952543 42.5153C4.22712 66.0068 23.4475 77.2542 41.2441 77.2542C64.7356 77.2542 75.4136 59.7424 76.4102 47.3559L65.4475 48.2102C61.7458 55.4712 53.9153 60.5966 43.3797 60.5966C31.1356 60.5966 21.0271 53.478 19.0339 39.6678C16.8983 24.2915 29.1424 17.7424 41.2441 17.7424L80.3966 17.3153ZM96.0576 50.4881C95.9153 49.6339 95.7729 48.4949 95.4881 47.2136L76.5525 47.7831L77.6915 56.183C80.8237 78.2508 68.8644 95.9051 48.3627 95.9051C28.7153 95.9051 20.6 89.3559 17.8949 87.2203L19.7458 104.59C24.3017 108.007 32.2746 111.993 48.7898 111.993C76.8373 111.993 101.61 90.7797 96.0576 50.4881ZM151.807 48.3525L170.6 47.2136C171.169 31.5525 179.285 17.0305 198.363 17.0305C218.58 17.0305 231.108 32.4068 235.949 48.3525L255.027 47.2136C248.335 21.7288 228.403 0.372877 197.935 0.372877C166.756 0.372877 151.38 22.4407 151.807 48.3525ZM159.21 79.6746C168.749 98.4678 186.261 111.993 211.746 111.993C238.085 111.993 252.18 97.7559 256.024 78.8203L236.091 79.6746C232.39 88.9288 224.702 95.3356 211.318 95.3356C197.081 95.3356 186.83 88.0746 180.281 78.8203L159.21 79.6746ZM319.227 62.5898C322.644 59.7424 327.627 56.7525 334.461 54.9017L330.759 26L329.905 19.0237L327.485 2.22373H311.539L319.227 62.5898ZM352.969 19.0237H378.597L377.315 2.22373H350.549L352.969 19.0237ZM321.647 100.461C324.922 103.736 337.451 111.993 357.525 111.993C385.288 111.993 399.668 96.6169 396.108 71.5593C393.261 51.0576 377.031 38.5288 355.959 37.3898L357.383 54.1898C369.058 56.6102 376.888 64.8678 378.169 74.122C380.02 87.2203 373.044 96.1898 355.959 96.1898C337.736 96.1898 324.353 87.9322 319.369 80.9559L321.647 100.461ZM453.717 61.878C453.86 62.5898 454.002 63.8712 454.287 65.1525L473.222 64.5831L471.941 56.183C468.951 34.1152 480.91 16.461 501.27 16.461C521.06 16.461 529.032 23.0102 531.738 25.1458L530.029 7.77627C525.473 4.35932 517.358 0.372877 500.985 0.372877C472.795 0.372877 448.022 21.5864 453.717 61.878ZM469.236 95.0508C480.483 106.583 495.148 111.993 508.246 111.993C534.87 111.993 552.239 94.6237 548.822 69.8508C545.548 46.3593 526.327 35.1119 508.388 35.1119C485.039 35.1119 474.361 52.6237 473.365 65.0102L484.185 64.1559C487.887 56.8949 495.86 51.7695 506.253 51.7695C518.639 51.7695 528.748 58.8881 530.741 72.6983C532.877 88.0746 520.632 94.6237 508.531 94.6237L469.236 95.0508ZM596.84 19.0237L667.457 18.5966C669.592 14.3254 671.87 9.91186 674.291 5.4983L672.582 2.22373H594.419L596.84 19.0237ZM633.857 103.308C634.141 105.444 634.569 108.007 635.138 110.569L655.64 109.431C655.355 107.722 655.07 106.014 654.643 103.878C651.653 82.6644 652.365 64.5831 656.779 47.3559L636.562 48.2102C632.575 64.2983 631.009 83.0915 633.857 103.308ZM751.757 47.7831H772.401L781.655 19.5932L785.784 47.7831H804.72L798.313 2.22373H767.56L751.757 47.7831ZM737.947 88.2169L742.36 94.6237H792.333L794.469 110H813.404L811.269 94.6237H826.93L825.791 79.2475H741.221L737.947 88.2169Z" fill="black"/>
</svg>
