<svg width="984" height="79" viewBox="0 0 984 79" fill="none" xmlns="http://www.w3.org/2000/svg">
<path d="M8.51122 62.0784L19.1005 61.8431C18.9436 61.7647 18.5514 61.294 18.473 60.5881L16.1982 46.1553C17.767 46.2338 19.728 46.2338 20.9046 46.2338C32.6704 46.2338 43.495 38.1545 41.3772 23.408C39.3378 8.58302 26.3169 1.60195 13.6098 1.60195C8.51122 1.60195 1.60859 2.46477 0.510439 2.70009L1.29483 11.8775C4.27551 11.4853 9.84468 11.0931 14.6295 11.0931C22.0027 11.0931 30.5526 15.2503 31.8076 24.3493C33.2195 34.311 26.2384 37.0564 14.9432 37.0564C10.4722 37.0564 7.2562 36.8211 5.29522 36.5858L8.51122 61.2156C8.58966 61.8431 8.82498 62 8.51122 62.0784ZM54.7081 11.1715C58.5516 11.1715 60.3557 8.11239 59.8851 5.1317C59.5714 2.54322 57.2966 0.111606 54.1591 0.111606C50.394 0.111606 48.3546 3.17073 48.7468 6.22985C49.139 8.7399 51.2568 11.1715 54.7081 11.1715ZM57.2966 62H67.0231L61.0617 19.3292L51.4137 19.9567L57.2966 62ZM94.6661 18.7017L95.2936 26.7809C100.314 27.8006 104.236 31.6441 104.942 36.978L96.9408 36.6642L97.9605 44.0375L114.354 43.8021C114.59 42.704 114.668 40.1939 114.433 38.0761C113.099 28.6634 106.51 19.9567 94.6661 18.7017ZM73.3307 41.7627C75.1348 54.7836 85.0965 63.0981 98.8233 63.0981C106.981 63.0981 113.335 61.0587 116.472 58.3134L113.491 50.9401C110.668 53.4501 105.255 54.7052 99.294 54.7052C92.156 54.7052 85.0965 50.7048 83.8415 43.7237L80.9392 21.5255C74.821 25.4474 72.0756 33.056 73.3307 41.7627ZM150.376 62.0784L160.965 61.8431C160.808 61.7647 160.416 61.294 160.337 60.5881L158.063 46.1553C159.631 46.2338 161.592 46.2338 162.769 46.2338C174.535 46.2338 185.359 38.1545 183.242 23.408C181.202 8.58302 168.181 1.60195 155.474 1.60195C150.376 1.60195 143.473 2.46477 142.375 2.70009L143.159 11.8775C146.14 11.4853 151.709 11.0931 156.494 11.0931C163.867 11.0931 172.417 15.2503 173.672 24.3493C175.084 34.311 168.103 37.0564 156.808 37.0564C152.337 37.0564 149.121 36.8211 147.16 36.5858L150.376 61.2156C150.454 61.8431 150.689 62 150.376 62.0784ZM196.572 11.1715C200.416 11.1715 202.22 8.11239 201.749 5.1317C201.436 2.54322 199.161 0.111606 196.023 0.111606C192.258 0.111606 190.219 3.17073 190.611 6.22985C191.003 8.7399 193.121 11.1715 196.572 11.1715ZM199.161 62H208.887L202.926 19.3292L193.278 19.9567L199.161 62ZM213.234 27.7221H242.492L245.394 20.9764L244.453 19.5645H212.057L213.234 27.7221ZM219.352 62H251.591L250.336 52.7442H231.903L235.119 45.0572H225.078L218.411 60.745L219.352 62ZM253.066 27.7221H282.324L285.226 20.9764L284.285 19.5645H251.89L253.066 27.7221ZM259.185 62H291.423L290.168 52.7442H271.735L274.951 45.0572H264.911L258.243 60.745L259.185 62ZM317.779 62.9413L317.151 55.0189C310.405 54.1561 304.679 47.7241 303.581 40.1155C302.404 31.8794 307.032 26.3102 314.092 26.3102C320.132 26.3102 324.524 29.9969 326.485 33.3698L329.858 57.2152C331.427 61.5294 336.055 62.9413 338.879 62.9413C343.271 62.9413 345.938 61.0587 346.879 58.9409L343.899 54.1561C343.663 54.6267 343.036 54.7836 342.33 54.7836C340.055 54.7836 338.957 52.5873 338.408 49.0576L334.172 19.5645H324.76L325.466 24.663C323.818 22.3098 319.112 18.5448 312.68 18.5448C300.522 18.5448 292.364 28.1928 294.168 41.0568C295.816 52.9795 306.013 62.6275 317.779 62.9413ZM378.492 62.0784L389.081 61.8431C388.925 61.7647 388.532 61.294 388.454 60.5881L386.179 46.1553C387.748 46.2338 389.709 46.2338 390.886 46.2338C402.651 46.2338 413.476 38.1545 411.358 23.408C409.319 8.58302 396.298 1.60195 383.591 1.60195C378.492 1.60195 371.59 2.46477 370.491 2.70009L371.276 11.8775C374.256 11.4853 379.826 11.0931 384.61 11.0931C391.984 11.0931 400.534 15.2503 401.789 24.3493C403.2 34.311 396.219 37.0564 384.924 37.0564C380.453 37.0564 377.237 36.8211 375.276 36.5858L378.492 61.2156C378.571 61.8431 378.806 62 378.492 62.0784ZM442.356 18.7017L442.984 26.7809C448.004 27.8006 451.926 31.6441 452.632 36.978L444.631 36.6642L445.651 44.0375L462.044 43.8021C462.28 42.704 462.358 40.1939 462.123 38.0761C460.789 28.6634 454.201 19.9567 442.356 18.7017ZM421.021 41.7627C422.825 54.7836 432.787 63.0981 446.514 63.0981C454.671 63.0981 461.025 61.0587 464.162 58.3134L461.182 50.9401C458.358 53.4501 452.946 54.7052 446.984 54.7052C439.846 54.7052 432.787 50.7048 431.532 43.7237L428.629 21.5255C422.511 25.4474 419.766 33.056 421.021 41.7627ZM476.505 78.9428H486.231L479.878 34.4679C480.819 31.1735 484.27 26.624 490.075 26.624C497.919 26.624 503.488 32.35 504.743 40.8999C505.527 47.0181 503.409 54.1561 495.801 54.9405L496.428 63.0981C508.743 62.8628 516.117 53.1364 514.156 39.6449C512.508 27.9575 504.351 18.5448 491.879 18.5448C485.29 18.5448 480.819 22.3098 478.78 25.8396L477.76 19.5645H468.112L476.505 78.9428ZM542.09 18.7017L542.718 26.7809C547.738 27.8006 551.66 31.6441 552.366 36.978L544.365 36.6642L545.385 44.0375L561.778 43.8021C562.014 42.704 562.092 40.1939 561.857 38.0761C560.523 28.6634 553.935 19.9567 542.09 18.7017ZM520.755 41.7627C522.559 54.7836 532.521 63.0981 546.248 63.0981C554.405 63.0981 560.759 61.0587 563.896 58.3134L560.916 50.9401C558.092 53.4501 552.68 54.7052 546.718 54.7052C539.58 54.7052 532.521 50.7048 531.266 43.7237L528.363 21.5255C522.245 25.4474 519.5 33.056 520.755 41.7627ZM571.454 45.0572H581.102L579.455 33.8404C580.71 29.7616 583.141 27.0946 587.22 27.0946C589.573 27.0946 591.142 28.2712 592.083 29.3694L593.574 19.8782C592.162 19.0154 590.358 18.5448 588.632 18.5448C582.828 18.5448 579.847 21.2117 578.357 24.5061L577.494 19.5645H567.846L571.454 45.0572ZM633.274 62.3138C643.628 59.8821 649.041 50.7832 647.55 40.1155C646.217 30.3891 638.53 21.8392 627.705 19.1723L628.49 28.4281C633.51 30.7813 637.196 35.8014 637.981 41.3705C638.765 46.7044 636.961 51.3323 632.49 53.4501L633.274 62.3138ZM620.567 62.4706L619.783 53.2148C614.763 51.0185 611.155 46.1553 610.292 40.2724C609.586 35.1739 611.468 30.5459 615.783 28.1928L614.998 19.4076C605.036 22.0745 599.389 31.1735 600.801 41.3705C602.291 51.646 609.586 60.039 620.567 62.4706ZM656.079 45.0572H665.806L664.237 34.9385C666.276 30.7813 669.649 27.879 674.277 27.879C678.513 27.879 682.435 31.1735 683.141 35.9582L686.749 62H696.397L692.71 35.3307C691.063 23.7218 685.651 18.5448 676.003 18.5448C669.336 18.5448 664.943 22.702 663.217 25.6043L662.198 19.5645H652.471L656.079 45.0572ZM705.124 11.1715C708.967 11.1715 710.772 8.11239 710.301 5.1317C709.987 2.54322 707.712 0.111606 704.575 0.111606C700.81 0.111606 698.77 3.17073 699.163 6.22985C699.555 8.7399 701.673 11.1715 705.124 11.1715ZM707.712 62H717.439L711.477 19.3292L701.829 19.9567L707.712 62ZM752.916 62.0784L763.505 61.8431C763.348 61.7647 762.956 61.294 762.878 60.5881L760.603 46.1553C762.172 46.2338 764.133 46.2338 765.309 46.2338C777.075 46.2338 787.9 38.1545 785.782 23.408C783.742 8.58302 770.722 1.60195 758.014 1.60195C752.916 1.60195 746.013 2.46477 744.915 2.70009L745.7 11.8775C748.68 11.4853 754.249 11.0931 759.034 11.0931C766.407 11.0931 774.957 15.2503 776.212 24.3493C777.624 34.311 770.643 37.0564 759.348 37.0564C754.877 37.0564 751.661 36.8211 749.7 36.5858L752.916 61.2156C752.994 61.8431 753.23 62 752.916 62.0784ZM818.9 62.9413L818.272 55.0189C811.526 54.1561 805.8 47.7241 804.702 40.1155C803.526 31.8794 808.154 26.3102 815.213 26.3102C821.253 26.3102 825.646 29.9969 827.606 33.3698L830.979 57.2152C832.548 61.5294 837.176 62.9413 840 62.9413C844.392 62.9413 847.059 61.0587 848.001 58.9409L845.02 54.1561C844.785 54.6267 844.157 54.7836 843.451 54.7836C841.176 54.7836 840.078 52.5873 839.529 49.0576L835.294 19.5645H825.881L826.587 24.663C824.94 22.3098 820.233 18.5448 813.801 18.5448C801.643 18.5448 793.486 28.1928 795.29 41.0568C796.937 52.9795 807.134 62.6275 818.9 62.9413ZM860.876 42.7824L859.464 31.0166C859.072 28.1928 862.759 26.3887 867.779 26.3887C873.976 26.3887 879.623 29.4478 880.878 31.095L882.447 23.3296C881.427 22.3098 876.015 18.5448 867.7 18.5448C857.111 18.5448 848.718 23.8786 849.895 32.35C850.758 38.3114 855.229 41.1352 860.876 42.7824ZM880.721 61.6862C886.683 59.6468 889.585 55.0974 888.565 48.1163C887.624 41.2921 882.525 38.782 873.191 36.7426L873.976 45.7631C876.956 46.7044 879.074 48.1947 879.309 50.0773L880.721 61.6862ZM868.171 63.0197L867.544 54.7836C861.19 54.1561 855.542 51.1754 853.66 49.2144L853.425 58.5487C855.386 59.8821 860.17 62.5491 868.171 63.0197ZM892.835 27.7221H920.053L918.876 19.5645H908.052L906.248 6.62205L896.6 7.17112L898.325 19.5645H891.658L892.835 27.7221ZM917.7 63.0981C922.406 63.0981 925.701 61.3725 927.348 59.4115L924.21 52.2736C923.034 53.607 921.308 54.2345 918.876 54.2345C915.503 54.2345 912.601 51.7245 911.974 47.4888L911.66 45.0572H901.934L902.326 48.1163C903.895 58.784 909.307 63.0981 917.7 63.0981ZM954.023 62.9413L953.396 55.0189C946.65 54.1561 940.924 47.7241 939.826 40.1155C938.649 31.8794 943.277 26.3102 950.337 26.3102C956.376 26.3102 960.769 29.9969 962.73 33.3698L966.103 57.2152C967.672 61.5294 972.3 62.9413 975.123 62.9413C979.516 62.9413 982.183 61.0587 983.124 58.9409L980.143 54.1561C979.908 54.6267 979.281 54.7836 978.575 54.7836C976.3 54.7836 975.202 52.5873 974.653 49.0576L970.417 19.5645H961.004L961.71 24.663C960.063 22.3098 955.357 18.5448 948.925 18.5448C936.767 18.5448 928.609 28.1928 930.413 41.0568C932.06 52.9795 942.257 62.6275 954.023 62.9413Z" fill="black"/>
</svg>
