<svg width="67" height="67" viewBox="0 0 67 67" fill="none" xmlns="http://www.w3.org/2000/svg">
<path d="M33.5 0C15.0002 0 0 15.0002 0 33.5C0 51.9998 15.0002 67 33.5 67C51.9998 67 67 51.9998 67 33.5C67 15.0002 51.9998 0 33.5 0ZM44.2753 34.016L27.9441 45.898C27.8546 45.9623 27.749 46.0007 27.6391 46.009C27.5291 46.0173 27.419 45.9951 27.3209 45.9448C27.2228 45.8946 27.1404 45.8183 27.0828 45.7243C27.0252 45.6303 26.9946 45.5222 26.9944 45.4119V21.6628C26.9941 21.5524 27.0243 21.4439 27.0818 21.3496C27.1393 21.2553 27.2217 21.1787 27.3201 21.1284C27.4184 21.078 27.5288 21.0559 27.6389 21.0645C27.7491 21.073 27.8547 21.1119 27.9441 21.1768L44.2753 33.0513C44.3525 33.1059 44.4154 33.1782 44.4589 33.2621C44.5023 33.346 44.525 33.4392 44.525 33.5336C44.525 33.6281 44.5023 33.7213 44.4589 33.8052C44.4154 33.8891 44.3525 33.9614 44.2753 34.016Z" fill="#2E9DD1"/>
</svg>
