<svg width="1146" height="65" viewBox="0 0 1146 65" fill="none" xmlns="http://www.w3.org/2000/svg">
<path d="M13.1588 34.6051L11.1979 19.231C10.4135 13.5834 15.9042 11.8578 22.0224 11.8578C28.4544 11.8578 34.8864 14.6816 37.8671 17.8976L36.6905 7.07297C34.808 5.42575 29.1604 2.60195 21.7871 2.60195C7.43278 2.60195 -0.646439 9.58302 1.00078 21.2704C1.94205 28.2515 7.04059 32.1735 13.1588 34.6051ZM38.1024 61.745C44.2207 58.9996 47.5151 53.2736 46.3385 44.7237C45.0051 35.1541 38.6515 31.6244 29.7879 29.1143L30.8076 39.782C33.8667 41.2724 35.7493 43.3902 36.2199 46.3709L38.1024 61.745ZM21.4734 63.9413L20.689 54.5286C12.8451 53.352 6.17776 49.0379 4.13834 45.9787L5.62868 58.529C7.35434 59.8624 12.4529 63.0784 21.4734 63.9413ZM86.6482 63.3138C97.0022 60.8821 102.414 51.7832 100.924 41.1155C99.5907 31.3891 91.9036 22.8392 81.0791 20.1723L81.8634 29.4281C86.8835 31.7813 90.5702 36.8014 91.3546 42.3705C92.139 47.7044 90.3349 52.3323 85.8638 54.4501L86.6482 63.3138ZM73.9411 63.4706L73.1567 54.2148C68.1366 52.0185 64.5284 47.1553 63.6656 41.2724C62.9596 36.1739 64.8422 31.5459 69.1563 29.1928L68.3719 20.4076C58.4102 23.0745 52.7626 32.1735 54.1745 42.3705C55.6648 52.646 62.9596 61.039 73.9411 63.4706ZM128.906 28.0162C133.691 28.0162 137.927 29.585 140.28 31.5459L142.241 22.8392C138.476 20.7214 133.455 19.5448 128.2 19.5448L128.906 28.0162ZM107.335 42.3705C108.983 53.9795 119.023 64.0981 133.691 64.0981C140.75 64.0981 145.143 62.1372 148.202 59.784L144.751 51.7832C143.103 54.2148 138.946 55.7052 133.534 55.7052C124.2 55.7052 117.925 48.8025 116.905 41.5077L114.63 23.702C108.983 27.7809 106.316 34.7619 107.335 42.3705ZM173.411 28.0162C178.196 28.0162 182.431 29.585 184.785 31.5459L186.746 22.8392C182.981 20.7214 177.96 19.5448 172.705 19.5448L173.411 28.0162ZM151.84 42.3705C153.487 53.9795 163.528 64.0981 178.196 64.0981C185.255 64.0981 189.648 62.1372 192.707 59.784L189.256 51.7832C187.608 54.2148 183.451 55.7052 178.039 55.7052C168.705 55.7052 162.43 48.8025 161.41 41.5077L159.135 23.702C153.487 27.7809 150.821 34.7619 151.84 42.3705ZM217.759 19.7017L218.387 27.7809C223.407 28.8006 227.329 32.6441 228.035 37.978L220.034 37.6642L221.053 45.0375L237.447 44.8021C237.683 43.704 237.761 41.1939 237.526 39.0761C236.192 29.6634 229.603 20.9567 217.759 19.7017ZM196.424 42.7627C198.228 55.7836 208.189 64.0981 221.916 64.0981C230.074 64.0981 236.428 62.0587 239.565 59.3134L236.584 51.9401C233.761 54.4501 228.348 55.7052 222.387 55.7052C215.249 55.7052 208.189 51.7048 206.934 44.7237L204.032 22.5255C197.914 26.4474 195.169 34.056 196.424 42.7627ZM247.123 46.0572H256.771L255.124 34.8404C256.379 30.7616 258.81 28.0946 262.889 28.0946C265.242 28.0946 266.811 29.2712 267.752 30.3694L269.243 20.8782C267.831 20.0154 266.027 19.5448 264.301 19.5448C258.496 19.5448 255.516 22.2117 254.025 25.5061L253.163 20.5645H243.515L247.123 46.0572ZM354.245 63.0784L364.835 62.8431C364.678 62.7647 364.286 62.294 364.207 61.5881L356.128 4.40604C356.05 3.85697 355.971 3.62166 356.128 3.38634L345.617 3.62166L332.283 37.978H343.264L348.519 22.0548L354.245 62.2156C354.324 62.9216 354.481 63 354.245 63.0784ZM307.182 63.0784L317.771 62.8431C317.614 62.7647 317.222 62.294 317.144 61.5881L311.496 22.0548L321.066 37.978H332.283L309.535 3.62166L298.397 3.77853C298.711 4.01385 299.024 4.48448 299.103 5.03356L307.182 62.2156C307.26 62.9216 307.496 63 307.182 63.0784ZM403.698 63.3138C414.052 60.8821 419.464 51.7832 417.974 41.1155C416.641 31.3891 408.954 22.8392 398.129 20.1723L398.913 29.4281C403.933 31.7813 407.62 36.8014 408.405 42.3705C409.189 47.7044 407.385 52.3323 402.914 54.4501L403.698 63.3138ZM390.991 63.4706L390.207 54.2148C385.187 52.0185 381.578 47.1553 380.716 41.2724C380.01 36.1739 381.892 31.5459 386.206 29.1928L385.422 20.4076C375.46 23.0745 369.813 32.1735 371.224 42.3705C372.715 52.646 380.01 61.039 390.991 63.4706ZM455.212 63H464.938L460.702 33.8207C462.193 30.7616 465.252 28.3299 469.017 28.3299C473.253 28.3299 476.861 31.7813 477.567 36.7229L478.9 46.0572H488.47L487.058 36.0954C485.568 25.4277 480.155 19.5448 470.978 19.5448C464.232 19.5448 460.232 22.9961 457.957 25.8199C455.839 22.5255 452.231 19.5448 446.191 19.5448C440.387 19.5448 435.602 23.0745 433.563 25.9768L432.621 20.5645H422.895L426.503 46.0572H436.23L434.425 34.2913C436.151 31.0753 439.916 28.5653 443.524 28.5653C447.682 28.5653 450.819 31.7813 451.525 36.4876L455.212 63ZM525.025 63.0784L535.536 62.8431C535.379 62.7647 534.987 62.294 534.908 61.5881L531.3 38.0564C532.712 38.2133 534.281 38.3701 535.85 38.3701C548.164 38.3701 557.734 32.2519 556.087 20.3292C554.283 7.46517 544.478 2.60195 530.437 2.60195C524.79 2.60195 518.201 3.46477 516.946 3.62166L517.73 12.799C519.377 12.5637 526.202 11.7009 530.908 11.7009C539.222 11.7009 545.498 14.2894 546.517 21.4273C547.38 27.5456 542.987 29.6634 534.438 29.6634C527.927 29.6634 521.495 28.879 520.475 28.6437L524.947 62.2156C525.025 62.9216 525.26 63 525.025 63.0784ZM556.008 63L567.147 62.9216C566.911 62.8431 566.519 62.2156 566.127 61.6665L556.714 48.3319L547.772 50.9204L556.008 63ZM600.408 63.3138C610.762 60.8821 616.175 51.7832 614.684 41.1155C613.351 31.3891 605.664 22.8392 594.839 20.1723L595.624 29.4281C600.644 31.7813 604.33 36.8014 605.115 42.3705C605.899 47.7044 604.095 52.3323 599.624 54.4501L600.408 63.3138ZM587.701 63.4706L586.917 54.2148C581.897 52.0185 578.289 47.1553 577.426 41.2724C576.72 36.1739 578.602 31.5459 582.917 29.1928L582.132 20.4076C572.17 23.0745 566.523 32.1735 567.935 42.3705C569.425 52.646 576.72 61.039 587.701 63.4706ZM644.706 63.9413L644.078 56.0189C637.332 55.1561 631.606 48.7241 630.508 41.1155C629.332 32.8794 633.96 27.3102 641.019 27.3102C647.059 27.3102 651.451 30.9969 653.412 34.3698L656.785 58.2152C658.354 62.5294 662.982 63.9413 665.806 63.9413C670.198 63.9413 672.865 62.0587 673.807 59.9409L670.826 55.1561C670.591 55.6267 669.963 55.7836 669.257 55.7836C666.982 55.7836 665.884 53.5873 665.335 50.0576L661.099 20.5645H651.687L652.393 25.663C650.746 23.3098 646.039 19.5448 639.607 19.5448C627.449 19.5448 619.291 29.1928 621.096 42.0568C622.743 53.9795 632.94 63.6275 644.706 63.9413ZM686.682 43.7824L685.27 32.0166C684.878 29.1928 688.565 27.3887 693.585 27.3887C699.782 27.3887 705.429 30.4478 706.684 32.095L708.253 24.3296C707.233 23.3098 701.821 19.5448 693.506 19.5448C682.917 19.5448 674.524 24.8786 675.701 33.35C676.564 39.3114 681.035 42.1352 686.682 43.7824ZM706.527 62.6862C712.489 60.6468 715.391 56.0974 714.371 49.1163C713.43 42.2921 708.331 39.782 698.997 37.7426L699.782 46.7631C702.762 47.7044 704.88 49.1947 705.115 51.0773L706.527 62.6862ZM693.977 64.0197L693.35 55.7836C686.996 55.1561 681.348 52.1754 679.466 50.2144L679.231 59.5487C681.192 60.8821 685.976 63.5491 693.977 64.0197ZM718.641 28.7221H745.859L744.682 20.5645H733.858L732.054 7.62205L722.406 8.17112L724.131 20.5645H717.464L718.641 28.7221ZM743.506 64.0981C748.212 64.0981 751.507 62.3725 753.154 60.4115L750.016 53.2736C748.84 54.607 747.114 55.2345 744.682 55.2345C741.31 55.2345 738.407 52.7245 737.78 48.4888L737.466 46.0572H727.74L728.132 49.1163C729.701 59.784 735.113 64.0981 743.506 64.0981ZM777.633 19.7017L778.26 27.7809C783.281 28.8006 787.202 32.6441 787.908 37.978L779.908 37.6642L780.927 45.0375L797.321 44.8021C797.556 43.704 797.635 41.1939 797.4 39.0761C796.066 29.6634 789.477 20.9567 777.633 19.7017ZM756.297 42.7627C758.102 55.7836 768.063 64.0981 781.79 64.0981C789.948 64.0981 796.301 62.0587 799.439 59.3134L796.458 51.9401C793.634 54.4501 788.222 55.7052 782.261 55.7052C775.123 55.7052 768.063 51.7048 766.808 44.7237L763.906 22.5255C757.788 26.4474 755.042 34.056 756.297 42.7627ZM827.705 64.0981L827.077 56.0189C820.802 55.313 814.841 49.7438 813.664 41.5077C812.409 32.8794 817.037 27.2318 824.018 27.2318C830.058 27.2318 834.372 30.9969 836.411 34.3698L839.863 58.6859C840.333 61.4312 842.53 63.3922 843.706 64.255L851.393 60.8821C850.138 58.9996 849.197 55.862 848.648 52.0185L841.51 1.26848L831.94 1.81756L835.235 24.408C833.195 22.2117 829.195 19.5448 822.685 19.5448C810.448 19.5448 802.369 29.6634 804.173 42.6059C805.977 55.313 815.076 64.0981 827.705 64.0981ZM886.12 63.0784L896.709 62.8431C896.553 62.7647 896.16 62.294 896.082 61.5881L893.807 47.1553C895.376 47.2338 897.337 47.2338 898.514 47.2338C910.279 47.2338 921.104 39.1545 918.986 24.408C916.947 9.58302 903.926 2.60195 891.219 2.60195C886.12 2.60195 879.218 3.46477 878.119 3.70009L878.904 12.8775C881.885 12.4853 887.454 12.0931 892.238 12.0931C899.612 12.0931 908.162 16.2503 909.417 25.3493C910.829 35.311 903.847 38.0564 892.552 38.0564C888.081 38.0564 884.865 37.8211 882.904 37.5858L886.12 62.2156C886.199 62.8431 886.434 63 886.12 63.0784ZM932.317 12.1715C936.161 12.1715 937.965 9.11239 937.494 6.1317C937.18 3.54322 934.906 1.11161 931.768 1.11161C928.003 1.11161 925.964 4.17073 926.356 7.22985C926.748 9.7399 928.866 12.1715 932.317 12.1715ZM934.906 63H944.632L938.671 20.3292L929.023 20.9567L934.906 63ZM972.432 28.0162C977.217 28.0162 981.452 29.585 983.806 31.5459L985.767 22.8392C982.002 20.7214 976.981 19.5448 971.726 19.5448L972.432 28.0162ZM950.861 42.3705C952.508 53.9795 962.549 64.0981 977.217 64.0981C984.276 64.0981 988.669 62.1372 991.728 59.784L988.277 51.7832C986.629 54.2148 982.472 55.7052 977.06 55.7052C967.726 55.7052 961.451 48.8025 960.431 41.5077L958.156 23.702C952.508 27.7809 949.842 34.7619 950.861 42.3705ZM1001 63H1010.73L1008.61 48.0966L1012.77 42.9196L1015.36 46.0572H1026.89L1018.73 35.9385L1031.36 20.5645H1019.91L1007.04 36.017L1001.95 0.248778L992.455 1.81756L1001 63ZM1043.67 63H1053.4L1044.77 1.26848L1035.12 1.81756L1043.67 63ZM1080.51 19.7017L1081.14 27.7809C1086.16 28.8006 1090.08 32.6441 1090.79 37.978L1082.79 37.6642L1083.81 45.0375L1100.2 44.8021C1100.44 43.704 1100.51 41.1939 1100.28 39.0761C1098.94 29.6634 1092.36 20.9567 1080.51 19.7017ZM1059.18 42.7627C1060.98 55.7836 1070.94 64.0981 1084.67 64.0981C1092.83 64.0981 1099.18 62.0587 1102.32 59.3134L1099.34 51.9401C1096.51 54.4501 1091.1 55.7052 1085.14 55.7052C1078 55.7052 1070.94 51.7048 1069.69 44.7237L1066.78 22.5255C1060.67 26.4474 1057.92 34.056 1059.18 42.7627ZM1117.48 43.7824L1116.07 32.0166C1115.68 29.1928 1119.37 27.3887 1124.39 27.3887C1130.58 27.3887 1136.23 30.4478 1137.49 32.095L1139.05 24.3296C1138.04 23.3098 1132.62 19.5448 1124.31 19.5448C1113.72 19.5448 1105.33 24.8786 1106.5 33.35C1107.37 39.3114 1111.84 42.1352 1117.48 43.7824ZM1137.33 62.6862C1143.29 60.6468 1146.19 56.0974 1145.17 49.1163C1144.23 42.2921 1139.13 39.782 1129.8 37.7426L1130.58 46.7631C1133.56 47.7044 1135.68 49.1947 1135.92 51.0773L1137.33 62.6862ZM1124.78 64.0197L1124.15 55.7836C1117.8 55.1561 1112.15 52.1754 1110.27 50.2144L1110.03 59.5487C1111.99 60.8821 1116.78 63.5491 1124.78 64.0197Z" fill="black"/>
</svg>
