<svg width="877" height="65" viewBox="0 0 877 65" fill="none" xmlns="http://www.w3.org/2000/svg">
<path d="M1.588 13.314C1.588 13.002 1.744 13.158 2.446 13.158H42.382C42.928 13.158 43.396 13.47 43.63 13.704L42.46 3.954C42.46 4.188 42.07 3.954 41.602 3.954H1.666C0.964 3.954 0.496 3.72 0.418 3.564L1.588 13.314ZM24.442 63.078L34.816 62.766C34.738 62.688 34.426 62.298 34.348 61.596L29.746 28.914H19.684L24.364 62.22C24.442 62.922 24.676 63 24.442 63.078ZM58.4214 63H68.0934L64.1934 36.09C65.8314 31.956 69.4194 29.07 74.0994 29.07C79.0914 29.07 82.2114 32.736 82.7574 36.948L84.0834 46.152H93.5994L92.1954 36.324C90.7914 25.872 85.0974 19.788 75.9714 19.788C69.1854 19.788 64.8954 23.766 63.1794 26.73L59.5134 1.614L49.9194 2.16L58.4214 63ZM121.335 19.944L121.959 27.978C126.951 28.992 130.851 32.814 131.553 38.118L123.597 37.806L124.611 45.138L140.913 44.904C141.147 43.812 141.225 41.316 140.991 39.21C139.665 29.85 133.113 21.192 121.335 19.944ZM100.119 42.876C101.913 55.824 111.819 64.092 125.469 64.092C133.581 64.092 139.899 62.064 143.019 59.334L140.055 52.002C137.247 54.498 131.865 55.746 125.937 55.746C118.839 55.746 111.819 51.768 110.571 44.826L107.685 22.752C101.601 26.652 98.8711 34.218 100.119 42.876ZM194.283 64.092L193.659 56.058C187.419 55.356 181.491 49.818 180.321 41.628C179.073 33.048 183.675 27.432 190.617 27.432C196.623 27.432 200.913 31.176 202.941 34.53L206.373 58.71C206.841 61.44 209.025 63.39 210.195 64.248L217.839 60.894C216.591 59.022 215.655 55.902 215.109 52.08L208.011 1.614L198.495 2.16L201.771 24.624C199.743 22.44 195.765 19.788 189.291 19.788C177.123 19.788 169.089 29.85 170.883 42.72C172.677 55.356 181.725 64.092 194.283 64.092ZM243.489 64.092L242.787 55.512C239.667 54.888 236.625 52.47 236.079 48.18L232.179 20.802H222.585L226.563 48.804C228.045 59.724 235.377 64.014 243.489 64.092ZM259.011 64.326L267.123 60.894C265.875 59.022 264.939 55.902 264.393 52.08L259.947 20.802H250.275L255.579 58.476C256.203 61.362 258.075 63.39 259.011 64.326ZM294.02 28.212C298.778 28.212 302.99 29.772 305.33 31.722L307.28 23.064C303.536 20.958 298.544 19.788 293.318 19.788L294.02 28.212ZM272.57 42.486C274.208 54.03 284.192 64.092 298.778 64.092C305.798 64.092 310.166 62.142 313.208 59.802L309.776 51.846C308.138 54.264 304.004 55.746 298.622 55.746C289.34 55.746 283.1 48.882 282.086 41.628L279.824 23.922C274.208 27.978 271.556 34.92 272.57 42.486ZM322.433 63H332.105L329.999 48.18L334.133 43.032L336.707 46.152H348.173L340.061 36.09L352.619 20.802H341.231L328.439 36.168L323.369 0.599999L313.931 2.16L322.433 63ZM393.243 43.89L391.839 32.19C391.449 29.382 395.115 27.588 400.107 27.588C406.269 27.588 411.885 30.63 413.133 32.268L414.693 24.546C413.679 23.532 408.297 19.788 400.029 19.788C389.499 19.788 381.153 25.092 382.323 33.516C383.181 39.444 387.627 42.252 393.243 43.89ZM412.977 62.688C418.905 60.66 421.791 56.136 420.777 49.194C419.841 42.408 414.771 39.912 405.489 37.884L406.269 46.854C409.233 47.79 411.339 49.272 411.573 51.144L412.977 62.688ZM400.497 64.014L399.873 55.824C393.555 55.2 387.939 52.236 386.067 50.286L385.833 59.568C387.783 60.894 392.541 63.546 400.497 64.014ZM450.373 63.936L449.749 56.058C443.041 55.2 437.347 48.804 436.255 41.238C435.085 33.048 439.687 27.51 446.707 27.51C452.713 27.51 457.081 31.176 459.031 34.53L462.385 58.242C463.945 62.532 468.547 63.936 471.355 63.936C475.723 63.936 478.375 62.064 479.311 59.958L476.347 55.2C476.113 55.668 475.489 55.824 474.787 55.824C472.525 55.824 471.433 53.64 470.887 50.13L466.675 20.802H457.315L458.017 25.872C456.379 23.532 451.699 19.788 445.303 19.788C433.213 19.788 425.101 29.382 426.895 42.174C428.533 54.03 438.673 63.624 450.373 63.936ZM487.824 46.152L490.788 32.346L486.03 20.802H476.202L487.824 46.152ZM495.858 63H503.97L509.664 34.218L523.002 63H532.284L512.706 20.802H503.58L495.858 63ZM535.248 46.074L539.85 20.802H530.256L528.774 31.41L535.248 46.074ZM568.15 28.914H595.216L594.046 20.802H583.282L581.488 7.932L571.894 8.478L573.61 20.802H566.98L568.15 28.914ZM592.876 64.092C597.556 64.092 600.832 62.376 602.47 60.426L599.35 53.328C598.18 54.654 596.464 55.278 594.046 55.278C590.692 55.278 587.806 52.782 587.182 48.57L586.87 46.152H577.198L577.588 49.194C579.148 59.802 584.53 64.092 592.876 64.092ZM610.744 63H620.416L616.516 36.09C618.154 31.956 621.742 29.07 626.422 29.07C631.414 29.07 634.534 32.736 635.08 36.948L636.406 46.152H645.922L644.518 36.324C643.114 25.872 637.42 19.788 628.294 19.788C621.508 19.788 617.218 23.766 615.502 26.73L611.836 1.614L602.242 2.16L610.744 63ZM673.657 19.944L674.281 27.978C679.273 28.992 683.173 32.814 683.875 38.118L675.919 37.806L676.933 45.138L693.235 44.904C693.469 43.812 693.547 41.316 693.313 39.21C691.987 29.85 685.435 21.192 673.657 19.944ZM652.441 42.876C654.235 55.824 664.141 64.092 677.791 64.092C685.903 64.092 692.221 62.064 695.341 59.334L692.377 52.002C689.569 54.498 684.187 55.746 678.259 55.746C671.161 55.746 664.141 51.768 662.893 44.826L660.007 22.752C653.923 26.652 651.193 34.218 652.441 42.876ZM744.577 28.212C749.335 28.212 753.547 29.772 755.887 31.722L757.837 23.064C754.093 20.958 749.101 19.788 743.875 19.788L744.577 28.212ZM723.127 42.486C724.765 54.03 734.749 64.092 749.335 64.092C756.355 64.092 760.723 62.142 763.765 59.802L760.333 51.846C758.695 54.264 754.561 55.746 749.179 55.746C739.897 55.746 733.657 48.882 732.643 41.628L730.381 23.922C724.765 27.978 722.113 34.92 723.127 42.486ZM799.675 63.312C809.971 60.894 815.353 51.846 813.871 41.238C812.545 31.566 804.901 23.064 794.137 20.412L794.917 29.616C799.909 31.956 803.575 36.948 804.355 42.486C805.135 47.79 803.341 52.392 798.895 54.498L799.675 63.312ZM787.039 63.468L786.259 54.264C781.267 52.08 777.679 47.244 776.821 41.394C776.119 36.324 777.991 31.722 782.281 29.382L781.501 20.646C771.595 23.298 765.979 32.346 767.383 42.486C768.865 52.704 776.119 61.05 787.039 63.468ZM824.961 46.152L827.925 32.346L823.167 20.802H813.339L824.961 46.152ZM832.995 63H841.107L846.801 34.218L860.139 63H869.421L849.843 20.802H840.717L832.995 63ZM872.385 46.074L876.987 20.802H867.393L865.911 31.41L872.385 46.074Z" fill="black"/>
</svg>
